Coordinates
nRows=176
nColumns=2
inDegrees=yes
endheader
time	ankle_angle_r	
3.99974	  0.213772	
4.06224	  0.270972	
4.12474	  0.253938	
4.18723	  0.213400	
4.24973	  0.200721	
4.31222	  0.198918	
4.37472	  0.214251	
4.43722	  0.245798	
4.49971	  0.265169	
4.56221	  0.252193	
4.6247	  0.210994	
4.6872	  0.188365	
4.7497	  0.193196	
4.81219	  0.210052	
4.87469	  0.237680	
4.93718	  0.250616	
4.99968	  0.254916	
5.06218	  0.240581	
5.12467	  0.190888	
5.18717	  0.168892	
5.24966	  0.190808	
5.31216	  0.220452	
5.37466	  0.232730	
5.43715	  0.227282	
5.49965	  0.245202	
5.56214	  0.231218	
5.62464	  0.163310	
5.68714	  0.144418	
5.74963	  0.150999	
5.81213	  0.162203	
5.87462	  0.211157	
5.93712	  0.243534	
5.99962	  0.272145	
6.06211	  0.279400	
6.12461	  0.220127	
6.1871	  0.175209	
6.2496	  0.170237	
6.3121	  0.209642	
6.37459	  0.275302	
6.43709	  0.290687	
6.49958	  0.302466	
6.56208	  0.307472	
6.62458	  0.256638	
6.68707	  0.226451	
6.74957	  0.230681	
6.81206	  0.251347	
6.87456	  0.289502	
6.93706	  0.311520	
6.99955	  0.307892	
7.06205	  0.253761	
7.12454	  0.195902	
7.18704	  0.192121	
7.24954	  0.188639	
7.31203	  0.212973	
7.37453	  0.262282	
7.43702	  0.252137	
7.49952	  0.239946	
7.56202	  0.240980	
7.62451	  0.200088	
7.68701	  0.167662	
7.7495	  0.178242	
7.812	  0.210974	
7.8745	  0.225739	
7.93699	  0.223102	
7.99949	  0.234408	
8.06198	  0.224213	
8.12448	  0.201324	
8.18698	  0.194281	
8.24947	  0.200944	
8.31197	  0.233112	
8.37446	  0.250709	
8.43696	  0.254415	
8.49946	  0.249938	
8.56195	  0.211393	
8.62445	  0.186467	
8.68694	  0.187202	
8.74944	  0.225915	
8.81194	  0.286845	
8.87443	  0.283781	
8.93693	  0.254844	
8.99942	  0.225418	
9.06192	  0.170418	
9.12442	  0.154333	
9.18691	  0.189506	
9.24941	  0.241160	
9.3119	  0.270040	
9.3744	  0.263172	
9.4369	  0.278636	
9.49939	  0.264277	
9.56189	  0.199296	
9.62438	  0.182815	
9.68688	  0.181573	
9.74938	  0.191761	
9.81187	  0.242832	
9.87437	  0.268688	
9.93686	  0.274382	
9.99936	  0.250095	
10.0619	  0.211560	
10.1244	  0.202836	
10.1868	  0.160267	
10.2493	  0.148131	
10.3118	  0.217886	
10.3743	  0.252275	
10.4368	  0.236743	
10.4993	  0.203094	
10.5618	  0.186384	
10.6243	  0.198254	
10.6868	  0.181363	
10.7493	  0.195352	
10.8118	  0.257080	
10.8743	  0.283277	
10.9368	  0.280506	
10.9993	  0.244518	
11.0618	  0.212837	
11.1243	  0.227391	
11.1868	  0.223030	
11.2493	  0.217051	
11.3118	  0.239278	
11.3743	  0.251056	
11.4368	  0.246518	
11.4993	  0.210931	
11.5618	  0.165006	
11.6243	  0.170713	
11.6868	  0.225247	
11.7492	  0.267217	
11.8117	  0.265749	
11.8742	  0.260920	
11.9367	  0.243242	
11.9992	  0.192313	
12.0617	  0.168842	
12.1242	  0.169276	
12.1867	  0.182722	
12.2492	  0.219649	
12.3117	  0.228072	
12.3742	  0.227576	
12.4367	  0.231703	
12.4992	  0.215132	
12.5617	  0.214802	
12.6242	  0.202802	
12.6867	  0.200614	
12.7492	  0.257738	
12.8117	  0.277926	
12.8742	  0.255353	
12.9367	  0.222270	
12.9992	  0.169622	
13.0617	  0.154397	
13.1242	  0.163838	
13.1867	  0.212807	
13.2492	  0.296819	
13.3116	  0.315755	
13.3741	  0.295216	
13.4366	  0.243031	
13.4991	  0.167476	
13.5616	  0.158458	
13.6241	  0.185071	
13.6866	  0.218495	
13.7491	  0.247316	
13.8116	  0.251273	
13.8741	  0.269984	
13.9366	  0.251285	
13.9991	  0.200456	
14.0616	  0.190895	
14.1241	  0.183664	
14.1866	  0.211208	
14.2491	  0.257400	
14.3116	  0.239387	
14.3741	  0.236640	
14.4366	  0.239326	
14.4991	  0.199654	
14.5616	  0.187601	
14.6241	  0.186216	
14.6866	  0.200089	
14.7491	  0.243212	
14.8116	  0.251410	
14.874	  0.240465	
14.9365	  0.244146	
